<?xml version="1.0" encoding="iso-8859-1"?>
<!-- Generator: Adobe Illustrator 19.0.0, SVG Export Plug-In . SVG Version: 6.00 Build 0)  -->
<svg version="1.1" id="Capa_1" xmlns="http://www.w3.org/2000/svg" xmlns:xlink="http://www.w3.org/1999/xlink" x="0px" y="0px"
	 viewBox="0 0 512 512" style="enable-background:new 0 0 512 512;" xml:space="preserve">
<path style="fill:#E55639;" d="M166,242c-16.538,0-30-13.462-30-30V30c0-16.538,13.462-30,30-30h180c16.538,0,30,13.462,30,30v182
	c0,16.538-13.462,30-30,30H166z"/>
<path style="fill:#CF4529;" d="M346,0h-90v242h90c16.538,0,30-13.462,30-30V30C376,13.462,362.538,0,346,0z"/>
<path style="fill:#E6EEFF;" d="M315.048,174.727l-45-120c-4.395-11.689-23.701-11.689-28.096,0l-45,120
	c-2.9,7.764,1.025,16.406,8.774,19.321c7.749,2.856,16.421-1.025,19.321-8.774L232.649,165h46.703l7.601,20.273
	C289.208,191.294,294.936,195,301,195c1.758,0,3.53-0.308,5.273-0.952C314.022,191.133,317.948,182.49,315.048,174.727z
	 M243.897,135L256,102.715L268.103,135H243.897z"/>
<path style="fill:#DAE2F2;" d="M268.103,135H256v30h23.351l7.601,20.273C289.208,191.294,294.936,195,301,195
	c1.758,0,3.53-0.308,5.273-0.952c7.749-2.915,11.675-11.558,8.774-19.321l-45-120c-2.197-5.845-8.123-8.767-14.048-8.767v56.755
	L268.103,135z"/>
<path style="fill:#F9BC35;" d="M467,512H301c-24.814,0-45-20.186-45-45V287c0-24.814,20.186-45,45-45h166c24.814,0,45,20.186,45,45
	v180C512,491.814,491.814,512,467,512z"/>
<path style="fill:#F39E31;" d="M384,512h83c24.814,0,45-20.186,45-45V287c0-24.814-20.186-45-45-45h-83V512z"/>
<path style="fill:#E6EEFF;" d="M384,452c-24.814,0-45-20.186-45-45v-60c0-24.814,20.186-45,45-45s45,20.186,45,45
	c0,8.291-6.709,15-15,15s-15-6.709-15-15c0-8.276-6.724-15-15-15s-15,6.724-15,15v60c0,8.276,6.724,15,15,15s15-6.724,15-15
	c0-8.291,6.709-15,15-15s15,6.709,15,15C429,431.814,408.814,452,384,452z"/>
<g>
	<path style="fill:#DAE2F2;" d="M429,407c0-8.291-6.709-15-15-15s-15,6.709-15,15c0,8.276-6.724,15-15,15v30
		C408.814,452,429,431.814,429,407z"/>
	<path style="fill:#DAE2F2;" d="M399,347c0,8.291,6.709,15,15,15s15-6.709,15-15c0-24.814-20.186-45-45-45v30
		C392.276,332,399,338.724,399,347z"/>
</g>
<path style="fill:#50B9FF;" d="M211,512H45c-24.814,0-45-20.186-45-45V287c0-24.814,20.186-45,45-45h166c24.814,0,45,20.186,45,45
	v180C256,491.814,235.814,512,211,512z"/>
<path style="fill:#48A7E6;" d="M211,512c24.814,0,45-20.186,45-45V287c0-24.814-20.186-45-45-45h-83v270H211z"/>
<path style="fill:#E6EEFF;" d="M173,347c0-24.814-20.186-45-45-45H98c-8.291,0-15,6.709-15,15v60v60c0,8.291,6.709,15,15,15h30
	c24.814,0,45-20.186,45-45c0-11.567-4.508-22.02-11.704-30C168.492,369.02,173,358.567,173,347z M113,332h15c8.276,0,15,6.724,15,15
	s-6.724,15-15,15h-15V332z M128,422h-15v-30h15c8.276,0,15,6.724,15,15S136.276,422,128,422z"/>
<path style="fill:#DAE2F2;" d="M143,347c0,8.276-6.724,15-15,15v30c8.276,0,15,6.724,15,15s-6.724,15-15,15v30
	c24.814,0,45-20.186,45-45c0-11.567-4.508-22.02-11.704-30c7.196-7.98,11.704-18.433,11.704-30c0-24.814-20.186-45-45-45v30
	C136.276,332,143,338.724,143,347z"/>
<g>
</g>
<g>
</g>
<g>
</g>
<g>
</g>
<g>
</g>
<g>
</g>
<g>
</g>
<g>
</g>
<g>
</g>
<g>
</g>
<g>
</g>
<g>
</g>
<g>
</g>
<g>
</g>
<g>
</g>
</svg>
